<svg xmlns="http://www.w3.org/2000/svg" viewBox="0 0 24 24" fill="none" stroke="currentColor" stroke-width="1.75" stroke-linecap="round" stroke-linejoin="round">
  <circle cx="12" cy="12" r="3"/>
  <path d="M19.4 15a1.7 1.7 0 0 0 .34 1.87l.06.06a2 2 0 1 1-2.83 2.83l-.06-.06a1.7 1.7 0 0 0-1.87-.34 1.7 1.7 0 0 0-1.05 1.57V21a2 2 0 1 1-4 0v-.09A1.7 1.7 0 0 0 9 19.4a1.7 1.7 0 0 0-1.87.34l-.06.06a2 2 0 1 1-2.83-2.83l.06-.06a1.7 1.7 0 0 0 .34-1.87 1.7 1.7 0 0 0-1.57-1.05H3a2 2 0 1 1 0-4h.09A1.7 1.7 0 0 0 4.6 9a1.7 1.7 0 0 0-.34-1.87l-.06-.06a2 2 0 1 1 2.83-2.83l.06.06a1.7 1.7 0 0 0 1.87.34H9a1.7 1.7 0 0 0 1.05-1.57V3a2 2 0 1 1 4 0v.09a1.7 1.7 0 0 0 1.05 1.57 1.7 1.7 0 0 0 1.87-.34l.06-.06a2 2 0 1 1 2.83 2.83l-.06.06a1.7 1.7 0 0 0-.34 1.87V9c.66.27 1.13.92 1.13 1.65 0 .73-.47 1.38-1.13 1.65Z"/>
</svg>
